<svg width="10" height="10" viewBox="0 0 10 10" fill="none" xmlns="http://www.w3.org/2000/svg">
<g id="copyright 1">
<path id="Vector" d="M4.99996 3.00006C5.58399 3.00296 6.13735 3.2619 6.51386 3.7083C6.60359 3.81328 6.76136 3.82579 6.86642 3.73614C6.9714 3.6465 6.98391 3.48865 6.89427 3.38359C6.00147 2.33035 4.42394 2.20019 3.37071 3.09291C2.31739 3.98562 2.18723 5.56323 3.08003 6.61647C3.97274 7.66971 5.55027 7.79986 6.60359 6.90715C6.70826 6.81842 6.80546 6.72122 6.89427 6.61647C6.98391 6.51141 6.9714 6.35364 6.86642 6.26391C6.76136 6.17427 6.60359 6.18678 6.51386 6.29176C5.79823 7.13016 4.53839 7.22964 3.69999 6.51393C2.86167 5.79829 2.76219 4.53845 3.47782 3.70006C3.858 3.2548 4.41448 2.99884 4.99996 3.00006Z" fill="#221F1F"/>
</g>
</svg>
